PathFileType	4	(X/Y/Z)	57_1_40_p0_0-222_filt_butterworth.trc
DataRate	CameraRate	NumFrames	NumMarkers	Units	OrigDataRate	OrigDataStartFrame	OrigNumFrames
42.0	42.0	5	27	m	42.0	166	222
Frame#	Time	RHip			RKnee			RAnkle			RBigToe			RSmallToe			RHeel			LHip			LKnee			LAnkle			LBigToe			LSmallToe			LHeel			Neck			Head			Nose			RShoulder			RElbow			RWrist			RThumb			RIndex			RPinky			LShoulder			LElbow			LWrist			LThumb			LIndex			LPinky			
		X1	Y1	Z1	X2	Y2	Z2	X3	Y3	Z3	X4	Y4	Z4	X5	Y5	Z5	X6	Y6	Z6	X7	Y7	Z7	X8	Y8	Z8	X9	Y9	Z9	X10	Y10	Z10	X11	Y11	Z11	X12	Y12	Z12	X13	Y13	Z13	X14	Y14	Z14	X15	Y15	Z15	X16	Y16	Z16	X17	Y17	Z17	X18	Y18	Z18	X19	Y19	Z19	X20	Y20	Z20	X21	Y21	Z21	X22	Y22	Z22	X23	Y23	Z23	X24	Y24	Z24	X25	Y25	Z25	X26	Y26	Z26	X27	Y27	Z27	
166	3.952380952380953	0.28206176902826735	0.5013406186496415	0.9500312566357378	0.3114113603223534	0.6679906225146994	1.3776314311921023	0.30721499878279307	0.8831156195057241	1.7607501053500125	0.25979102063838466	0.7361332474067244	1.814554480824979	0.3304844856228646	0.7199619765595259	1.7943459178437542	0.279510271014475	0.9408166179383237	1.791531993349667	0.08822119727786767	0.5038439684247464	0.9771087526258826	0.09632725522082795	0.6426934420930082	1.3761022183912015	0.09311595854935241	0.8821964949664078	1.7754615485908953	0.11593288101117644	0.7103420913688719	1.8175512709307031	0.051877626101202834	0.7154165256293699	1.8115467969698296	0.10138696084774351	0.9505482222015826	1.8164112132916062	0.15584536748480093	0.37390744578348944	0.43608286040673655	0.13899149768600536	0.27914108196261805	0.2084021504603638	0.16435081267896798	0.24370664026273448	0.3609158122334097	0.29999902873356077	0.42420849705192293	0.5073943946615732	0.34458070279535435	0.3778648860393163	0.7763677289962416	0.24676304204278834	0.39839338636921323	0.9920460421831756	0.18410836803402225	0.38797407551133534	1.089844472653612	0.1762164940154155	0.4028642082269941	1.091574534208596	0.1928533901203818	0.3703442328014294	1.088293407420624	0.022706188294254782	0.4399973016266743	0.520263712502805	-0.0052344508975427344	0.4223404798366823	0.790971964660701	0.12137855786489993	0.36718621923324357	0.9910567198959834	0.20408574402204066	0.34382431087974685	1.0541278035754194	0.20953563794793112	0.3355902098890922	1.0811384816697414	0.1873411165728167	0.3704686987018809	1.0924986229296747
167	3.976190476190476	0.28353088366319945	0.5015561515767486	0.9501906900597892	0.31093222225221706	0.6677916701280104	1.3743977226301056	0.3072616114424327	0.8830265915338297	1.760651261778631	0.25922234347409806	0.7358433699196492	1.8142918228036935	0.3317777046354551	0.7190632691041815	1.7954000928972471	0.2851413914113181	0.9397637643904554	1.7910127154618598	0.08982420185965743	0.5078096384011719	0.9770395320480331	0.09888900904823306	0.6367751549884817	1.3763996840035349	0.09419705908086688	0.88189157577954	1.7730713720399407	0.11583596169162122	0.7101525579042947	1.8176321750133688	0.052207277831367534	0.7146966109996807	1.8112180786346466	0.1019463836091036	0.9502391865383459	1.8163074980275578	0.15588593082413124	0.37374952934842187	0.4358106759260335	0.13714265077741702	0.2791071181446496	0.2087400212226899	0.16079072833181082	0.2434811274978031	0.3601384959477274	0.2979608190551393	0.4182510676632447	0.5083622217238821	0.34465088485392004	0.3793516421904685	0.7760865523666883	0.2466043283587966	0.3987830139087625	0.9930519846512667	0.18382057214945058	0.3912904055080601	1.0900152283925757	0.17705647290652568	0.4061111382050373	1.0916720125517536	0.19553606883195843	0.370491501528721	1.0891815405296983	0.021766225242349734	0.4429194095641369	0.519862327001858	-0.004870461041256411	0.4255484052289944	0.7906173867974575	0.12157101291564765	0.3671303678544825	0.9927954148825564	0.20390236577548854	0.3441306325323567	1.0551812995072438	0.2089235189727695	0.3354288133750684	1.0811924211804225	0.18460561402297823	0.3710325349599233	1.0944015700920913
168	4.0	0.2859126493352893	0.5022747996890622	0.951185873817	0.31067272462937046	0.66840783483582	1.375002932292244	0.30731939364881017	0.8829771858962105	1.7605337623614803	0.25905025561371553	0.7312713797630273	1.8130012058589369	0.3319371951776691	0.7187814632425277	1.795474505306002	0.28995312798632455	0.9397790938015051	1.7906029330336128	0.09032457539166032	0.5141972610060137	0.9771870356355741	0.10286805897723125	0.6332220754198459	1.3759077836081308	0.09419417337923461	0.8817527740698548	1.7716092782469846	0.11554687237665824	0.7099685704745198	1.8201958385676549	0.05229701464738229	0.7147612506860382	1.8114346351065016	0.10383975383134597	0.9547392012714975	1.8160137757778205	0.15479665121777386	0.37307886068833485	0.4360217384108391	0.1360067170376244	0.2794311842753393	0.208349548520813	0.15666093073643034	0.24324987571737483	0.3596677101621462	0.2967395236828319	0.41441803785632264	0.5089011588033575	0.3446430671448035	0.38000534015785303	0.7760723318324312	0.2466510865362161	0.3987233301574617	0.9931258946277787	0.18375687107132702	0.3888708717613406	1.0892751309686706	0.17928957248390404	0.40413480822382386	1.0923231130568531	0.19964136592393514	0.3729359134614464	1.0906998381362576	0.02016303683943709	0.44387477218896354	0.5193907550160928	-0.00521540052553271	0.43519282985776375	0.7903279751838859	0.12181398464905384	0.36752598409800097	0.9939267386889343	0.20396037663852046	0.34439075892621185	1.0550027796175692	0.20887886738687675	0.33552464303482554	1.081222776261796	0.183722659501649	0.37169306905183674	1.0948316401908014
169	4.023809523809524	0.2871417461673741	0.5029952153391217	0.9529989257084056	0.3106340575485697	0.6689127916643451	1.3768339460902954	0.3073696775781961	0.8829600761883909	1.7604492517390646	0.2594388492918601	0.7241324209377376	1.8120659387334674	0.3319399679678416	0.718865746938798	1.7952904204804365	0.2916527206501238	0.9402533768212923	1.7905203653162263	0.09014650525621692	0.5183730238154796	0.9775448728119154	0.10537560628686596	0.6330675797110079	1.3753739732991859	0.09408131666510455	0.882007855773953	1.771603664530347	0.11516245665608105	0.7116310189687197	1.8246400563488385	0.05230305657974961	0.7149648539864767	1.811638565608225	0.10615109233272609	0.9632027426638319	1.8158450988412378	0.15264465429542132	0.37322283123964833	0.4362819068443998	0.1356724937513965	0.2789884880767512	0.20728659196830823	0.15275927909526488	0.24364980956414256	0.35997685243942756	0.2968638285604253	0.4145816483874784	0.508838544400221	0.3446282654112445	0.3802047125974678	0.7770924541673097	0.24668355915260798	0.39871053670084355	0.992973376410087	0.18526218611830747	0.3802432702975293	1.088400574179802	0.18235475791563896	0.39668017443688214	1.0937037106069054	0.20222352829386142	0.3770079761469961	1.0915231461551396	0.016785400938860065	0.4472149571339301	0.5187164159020581	-0.0065322886355568665	0.44608516193111203	0.7900208324312493	0.1218710018618189	0.36757583347494477	0.9940466540469057	0.20515898157591045	0.3439125576428309	1.0550536869568727	0.20888650336122686	0.33498600464241673	1.0811680214610178	0.18483695669769087	0.3723309146293608	1.0949331230678374
170	4.047619047619048	0.28747404335540355	0.5037190654842107	0.9541973370780888	0.31059788809577177	0.6690829649511012	1.3757173123354451	0.3074018263630023	0.8829097054277009	1.7604491816263266	0.26005720090970214	0.7200010463888981	1.8128429945210829	0.3315635875901108	0.7190188079579893	1.7952358935985955	0.2912409877269369	0.9402253563577385	1.7905730274170752	0.09109746706812788	0.5188879691620106	0.9772171928503613	0.10530740850264289	0.6333088700744999	1.3740844616006056	0.09409077313336046	0.8822813370560727	1.7718690345803845	0.11482207824847421	0.7161627091774196	1.827305460174997	0.05224735224236818	0.7150396681167766	1.8116398518301065	0.1072728135092848	0.968651664039796	1.8167148851905455	0.15023235892507603	0.37677025078893644	0.4359409542691147	0.1348130333278653	0.2757683225763937	0.20738633688776903	0.1489415642210065	0.2482113969295459	0.36061675986673636	0.29699024997501017	0.41500939722688956	0.5087705863464105	0.3445577778373605	0.3801281818273725	0.7789114464227724	0.24676230826531717	0.39924809811969725	0.993044311558521	0.18849445230983994	0.37005356113147425	1.0875393398609299	0.18550468377373336	0.3862909816761278	1.0946989386741486	0.20238460173069814	0.37644906345044477	1.0911653538594945	0.013326104729156286	0.4528283307559936	0.5187168316607045	-0.00761091173903568	0.4516510359950343	0.789769225843973	0.12130063335333013	0.3652922937457437	0.9937619322338648	0.20706657807274498	0.3401798741531455	1.056310808696543	0.20885476686968532	0.33420808064160257	1.0811051107335417	0.18576578057543786	0.3716495515847972	1.095631921853061
